<svg width="430" height="430" viewBox="0 0 430 430" fill="none" xmlns="http://www.w3.org/2000/svg">
<path d="M401.159 109.875C381.933 76.1862 355.855 49.5146 322.916 29.8544C289.973 10.1931 254.009 0.36499 214.998 0.36499C175.992 0.36499 140.016 10.1961 107.08 29.8544C74.1385 49.5136 48.0608 76.1862 28.8349 109.875C9.61197 143.563 0 180.351 0 220.237C0 268.149 13.6684 311.233 41.0119 349.499C68.3525 387.769 103.673 414.25 146.969 428.946C152.009 429.902 155.74 429.229 158.166 426.944C160.592 424.656 161.804 421.79 161.804 418.358C161.804 417.786 161.756 412.635 161.663 402.899C161.567 393.163 161.522 384.669 161.522 377.422L155.083 378.562C150.977 379.331 145.798 379.657 139.546 379.564C133.296 379.475 126.808 378.805 120.09 377.56C113.37 376.325 107.119 373.463 101.333 368.977C95.55 364.492 91.4446 358.621 89.0178 351.373L86.2185 344.784C84.3525 340.398 81.4149 335.526 77.4017 330.185C73.3885 324.839 69.3301 321.215 65.2247 319.307L63.2647 317.872C61.9586 316.919 60.7467 315.768 59.626 314.434C58.5062 313.099 57.6679 311.763 57.108 310.426C56.5472 309.087 57.0119 307.989 58.5072 307.128C60.0025 306.266 62.7048 305.848 66.6258 305.848L72.2226 306.703C75.9554 307.468 80.5727 309.754 86.0802 313.573C91.5848 317.39 96.1099 322.352 99.6564 328.456C103.951 336.284 109.125 342.248 115.194 346.353C121.257 350.457 127.371 352.506 133.528 352.506C139.686 352.506 145.004 352.028 149.485 351.079C153.961 350.124 158.161 348.689 162.082 346.782C163.761 333.989 168.334 324.16 175.797 317.291C165.161 316.147 155.598 314.426 147.103 312.136C138.614 309.844 129.841 306.124 120.791 300.965C111.736 295.814 104.225 289.418 98.2543 281.787C92.2829 274.152 87.3823 264.128 83.5593 251.725C79.7343 239.316 77.8213 225.003 77.8213 208.78C77.8213 185.681 85.1948 166.025 99.9388 149.8C93.0321 132.434 93.6841 112.967 101.897 91.3992C107.309 89.6795 115.336 90.97 125.972 95.2629C136.611 99.5577 144.4 103.237 149.348 106.287C154.295 109.337 158.26 111.921 161.246 114.017C178.606 109.056 196.521 106.575 214.996 106.575C233.471 106.575 251.39 109.056 268.751 114.017L279.388 107.149C286.663 102.566 295.253 98.3664 305.139 94.5489C315.03 90.7334 322.594 89.6825 327.822 91.4022C336.217 112.971 336.965 132.437 330.056 149.803C344.799 166.028 352.176 185.689 352.176 208.783C352.176 225.006 350.256 239.365 346.437 251.868C342.613 264.374 337.67 274.387 331.607 281.93C325.536 289.472 317.976 295.818 308.926 300.969C299.874 306.123 291.099 309.843 282.609 312.135C274.116 314.428 264.553 316.15 253.917 317.296C263.618 325.881 268.469 339.434 268.469 357.947V418.35C268.469 421.782 269.636 424.647 271.972 426.936C274.304 429.221 277.988 429.894 283.028 428.937C326.33 414.243 361.65 387.761 388.99 349.491C416.327 311.225 430 268.141 430 220.229C429.99 180.348 420.373 143.563 401.159 109.875Z" fill="#007A6A"/>
</svg>
